<svg width="134" height="57" viewBox="0 0 134 57" fill="none" xmlns="http://www.w3.org/2000/svg">
<g filter="url(#filter0_d_114_3924)">
<rect x="4.5" y="2.5" width="125" height="48" rx="24" stroke="#F5F5F5" shape-rendering="crispEdges"/>
<path d="M41.523 33.228C40.7883 33.228 40.136 33.152 39.566 33C38.996 32.8353 38.502 32.6137 38.084 32.335C37.666 32.0437 37.324 31.727 37.058 31.385C36.792 31.0303 36.5957 30.6567 36.469 30.264L38.008 29.732C38.198 30.2893 38.578 30.777 39.148 31.195C39.7307 31.6003 40.44 31.803 41.276 31.803C42.302 31.803 43.1063 31.6003 43.689 31.195C44.2717 30.7897 44.563 30.2513 44.563 29.58C44.563 28.9593 44.3033 28.459 43.784 28.079C43.2647 27.6863 42.5807 27.3823 41.732 27.167L40.269 26.787C39.6737 26.635 39.1227 26.4133 38.616 26.122C38.122 25.818 37.723 25.438 37.419 24.982C37.1277 24.5133 36.982 23.956 36.982 23.31C36.982 22.1067 37.3683 21.1693 38.141 20.498C38.9263 19.814 40.0537 19.472 41.523 19.472C42.397 19.472 43.1507 19.6177 43.784 19.909C44.4173 20.1877 44.9303 20.5487 45.323 20.992C45.7283 21.4227 46.0133 21.8913 46.178 22.398L44.658 22.93C44.4173 22.2967 44.012 21.8027 43.442 21.448C42.872 21.0807 42.1817 20.897 41.371 20.897C40.5223 20.897 39.8447 21.106 39.338 21.524C38.844 21.9293 38.597 22.4867 38.597 23.196C38.597 23.804 38.7933 24.2727 39.186 24.602C39.5787 24.9187 40.0917 25.153 40.725 25.305L42.188 25.666C43.48 25.97 44.468 26.4767 45.152 27.186C45.8487 27.8827 46.197 28.6363 46.197 29.447C46.197 30.1437 46.0197 30.7833 45.665 31.366C45.3103 31.936 44.7847 32.392 44.088 32.734C43.404 33.0633 42.549 33.228 41.523 33.228ZM52.0729 33.228C51.1482 33.228 50.4326 32.9873 49.9259 32.506C49.4192 32.0247 49.1659 31.347 49.1659 30.473V20.536H50.6859V30.321C50.6859 30.8023 50.8126 31.176 51.0659 31.442C51.3319 31.6953 51.6992 31.822 52.1679 31.822C52.3199 31.822 52.4656 31.803 52.6049 31.765C52.7569 31.7143 52.9532 31.6003 53.1939 31.423L53.7829 32.658C53.4536 32.8733 53.1559 33.019 52.8899 33.095C52.6239 33.1837 52.3516 33.228 52.0729 33.228ZM47.5129 24.849V23.5H53.5359V24.849H47.5129ZM61.4779 33L61.4019 31.442V27.984C61.4019 27.2367 61.3196 26.6223 61.1549 26.141C60.9902 25.647 60.7306 25.2733 60.3759 25.02C60.0212 24.7667 59.5589 24.64 58.9889 24.64C58.4696 24.64 58.0199 24.7477 57.6399 24.963C57.2726 25.1657 56.9686 25.495 56.7279 25.951L55.3599 25.419C55.6006 24.9757 55.8919 24.5957 56.2339 24.279C56.5759 23.9497 56.9749 23.7027 57.4309 23.538C57.8869 23.3607 58.4062 23.272 58.9889 23.272C59.8756 23.272 60.6039 23.4493 61.1739 23.804C61.7566 24.146 62.1936 24.659 62.4849 25.343C62.7762 26.0143 62.9156 26.8503 62.9029 27.851L62.8839 33H61.4779ZM58.6279 33.228C57.5132 33.228 56.6392 32.9747 56.0059 32.468C55.3852 31.9487 55.0749 31.233 55.0749 30.321C55.0749 29.3583 55.3916 28.6237 56.0249 28.117C56.6709 27.5977 57.5702 27.338 58.7229 27.338H61.4399V28.611H59.0649C58.1782 28.611 57.5449 28.7567 57.1649 29.048C56.7976 29.3393 56.6139 29.7573 56.6139 30.302C56.6139 30.796 56.7976 31.1887 57.1649 31.48C57.5322 31.7587 58.0452 31.898 58.7039 31.898C59.2486 31.898 59.7236 31.784 60.1289 31.556C60.5342 31.3153 60.8446 30.9797 61.0599 30.549C61.2879 30.1057 61.4019 29.5863 61.4019 28.991H62.0479C62.0479 30.283 61.7566 31.3153 61.1739 32.088C60.5912 32.848 59.7426 33.228 58.6279 33.228ZM66.1474 27.851C66.1474 26.825 66.3438 25.9953 66.7364 25.362C67.1291 24.716 67.6294 24.241 68.2374 23.937C68.8581 23.6203 69.5104 23.462 70.1944 23.462V24.887C69.6371 24.887 69.0988 24.982 68.5794 25.172C68.0728 25.3493 67.6548 25.647 67.3254 26.065C66.9961 26.483 66.8314 27.053 66.8314 27.775L66.1474 27.851ZM65.3114 33V23.5H66.8314V33H65.3114ZM75.3034 33.228C74.3787 33.228 73.663 32.9873 73.1564 32.506C72.6497 32.0247 72.3964 31.347 72.3964 30.473V20.536H73.9164V30.321C73.9164 30.8023 74.043 31.176 74.2964 31.442C74.5624 31.6953 74.9297 31.822 75.3984 31.822C75.5504 31.822 75.696 31.803 75.8354 31.765C75.9874 31.7143 76.1837 31.6003 76.4244 31.423L77.0134 32.658C76.684 32.8733 76.3864 33.019 76.1204 33.095C75.8544 33.1837 75.582 33.228 75.3034 33.228ZM70.7434 24.849V23.5H76.7664V24.849H70.7434ZM83.0174 33.228C82.0927 33.228 81.2757 33.019 80.5664 32.601C79.857 32.1703 79.2997 31.5813 78.8944 30.834C78.5017 30.0867 78.3054 29.2253 78.3054 28.25C78.3054 27.2747 78.5017 26.4133 78.8944 25.666C79.2997 24.9187 79.8507 24.336 80.5474 23.918C81.2567 23.4873 82.0674 23.272 82.9794 23.272C83.866 23.272 84.6324 23.4937 85.2784 23.937C85.9244 24.3677 86.4247 24.9757 86.7794 25.761C87.134 26.5463 87.3114 27.471 87.3114 28.535H79.4644L79.8444 28.212C79.8444 28.972 79.9774 29.6243 80.2434 30.169C80.522 30.7137 80.9084 31.1317 81.4024 31.423C81.8964 31.7017 82.46 31.841 83.0934 31.841C83.7647 31.841 84.3284 31.6827 84.7844 31.366C85.253 31.0493 85.614 30.6313 85.8674 30.112L87.1784 30.777C86.9377 31.271 86.6147 31.7017 86.2094 32.069C85.8167 32.4363 85.348 32.7213 84.8034 32.924C84.2714 33.1267 83.676 33.228 83.0174 33.228ZM79.9394 27.566L79.5404 27.262H86.0954L85.6964 27.585C85.6964 26.977 85.576 26.4513 85.3354 26.008C85.0947 25.5647 84.7717 25.2227 84.3664 24.982C83.961 24.7413 83.4924 24.621 82.9604 24.621C82.441 24.621 81.947 24.7413 81.4784 24.982C81.0224 25.2227 80.6487 25.5647 80.3574 26.008C80.0787 26.4387 79.9394 26.958 79.9394 27.566ZM89.2284 33V23.5H90.6534L90.7484 25.248V33H89.2284ZM95.8974 33V28.136H97.4174V33H95.8974ZM95.8974 28.136C95.8974 27.1987 95.7898 26.483 95.5744 25.989C95.3591 25.495 95.0614 25.1593 94.6814 24.982C94.3014 24.792 93.8708 24.697 93.3894 24.697C92.5534 24.697 91.9011 24.9947 91.4324 25.59C90.9764 26.1727 90.7484 27.0023 90.7484 28.079H90.0074C90.0074 27.0783 90.1531 26.217 90.4444 25.495C90.7358 24.773 91.1601 24.222 91.7174 23.842C92.2748 23.462 92.9461 23.272 93.7314 23.272C94.4788 23.272 95.1248 23.424 95.6694 23.728C96.2268 24.0193 96.6574 24.488 96.9614 25.134C97.2781 25.78 97.4301 26.6287 97.4174 27.68V28.136H95.8974Z" fill="#F5F5F5"/>
</g>
<defs>
<filter id="filter0_d_114_3924" x="0" y="0" width="134" height="57" filterUnits="userSpaceOnUse" color-interpolation-filters="sRGB">
<feFlood flood-opacity="0" result="BackgroundImageFix"/>
<feColorMatrix in="SourceAlpha" type="matrix" values="0 0 0 0 0 0 0 0 0 0 0 0 0 0 0 0 0 0 127 0" result="hardAlpha"/>
<feOffset dy="2"/>
<feGaussianBlur stdDeviation="2"/>
<feComposite in2="hardAlpha" operator="out"/>
<feColorMatrix type="matrix" values="0 0 0 0 0 0 0 0 0 0 0 0 0 0 0 0 0 0 0.25 0"/>
<feBlend mode="normal" in2="BackgroundImageFix" result="effect1_dropShadow_114_3924"/>
<feBlend mode="normal" in="SourceGraphic" in2="effect1_dropShadow_114_3924" result="shape"/>
</filter>
</defs>
</svg>
